<?xml version="1.0" standalone="no"?>
<!DOCTYPE svg PUBLIC "-//W3C//DTD SVG 20010904//EN"
 "http://www.w3.org/TR/2001/REC-SVG-20010904/DTD/svg10.dtd">
<svg version="1.0" xmlns="http://www.w3.org/2000/svg"
 width="795.000000pt" height="713.000000pt" viewBox="0 0 795.000000 713.000000"
 preserveAspectRatio="xMidYMid meet">
<metadata>
Created by potrace 1.16, written by Peter Selinger 2001-2019
</metadata>
<g transform="translate(0.000000,713.000000) scale(0.100000,-0.100000)"
fill="#000000" stroke="none">
<path d="M3545 5483 c-99 -53 -260 -212 -325 -322 -127 -214 -157 -497 -78
-741 78 -242 254 -440 492 -550 135 -64 190 -75 366 -74 140 0 164 3 245 28
225 68 399 194 522 376 75 111 126 256 144 405 30 257 -67 536 -251 725 -82
84 -183 157 -229 166 -25 5 -36 1 -61 -24 -53 -54 -41 -87 59 -161 147 -109
242 -239 290 -396 21 -68 24 -101 25 -220 0 -126 -3 -148 -27 -220 -39 -116
-91 -199 -187 -296 -140 -141 -285 -206 -481 -216 -166 -9 -290 21 -430 104
-160 93 -290 272 -336 461 -21 89 -21 256 1 347 9 39 34 106 56 150 62 127
120 192 284 318 58 45 61 113 6 142 -36 19 -47 18 -85 -2z"/>
<path d="M3870 5244 c-100 -26 -180 -73 -256 -148 -227 -226 -227 -567 1 -792
176 -174 427 -214 649 -102 87 44 204 163 245 251 181 381 -89 809 -509 806
-41 0 -100 -7 -130 -15z m206 -155 c123 -23 232 -107 291 -227 25 -51 28 -67
28 -162 0 -96 -3 -110 -29 -165 -38 -77 -120 -158 -193 -193 -52 -24 -69 -27
-168 -27 -101 0 -115 2 -170 29 -242 119 -297 445 -105 636 53 54 129 95 202
109 61 12 77 12 144 0z"/>
<path d="M2896 3774 c-32 -8 -89 -30 -127 -50 -179 -94 -291 -316 -260 -514
17 -111 66 -207 149 -290 135 -135 297 -179 484 -131 48 12 207 83 444 196
203 97 583 279 844 403 l475 226 80 4 c64 3 91 0 137 -18 74 -28 146 -93 183
-167 27 -52 30 -68 30 -153 0 -84 -3 -102 -28 -151 -33 -69 -100 -132 -174
-166 -44 -20 -71 -26 -132 -25 -125 0 -199 39 -294 154 -42 51 -52 58 -83 58
-51 0 -88 -40 -81 -86 7 -42 62 -119 125 -175 192 -169 504 -157 687 26 287
287 155 759 -240 860 -75 19 -152 19 -234 0 -42 -10 -297 -127 -725 -331
-1111 -532 -1058 -508 -1146 -508 -133 0 -242 69 -302 192 -29 59 -33 76 -33
152 0 71 4 94 26 141 33 69 91 129 161 166 48 25 63 28 153 28 92 0 104 -2
154 -30 31 -17 83 -61 121 -104 77 -84 109 -94 155 -51 51 48 20 126 -89 228
-118 112 -294 156 -460 116z"/>
<path d="M2840 2305 c0 -4 25 -55 55 -114 52 -101 55 -112 55 -179 l0 -72 40
0 40 0 0 78 c0 48 5 85 13 97 8 11 35 59 61 108 l47 87 -49 0 -49 0 -29 -75
-30 -76 -30 73 -30 73 -47 3 c-26 2 -47 0 -47 -3z"/>
<path d="M3241 2294 c-18 -10 -45 -35 -60 -58 -22 -34 -26 -50 -26 -116 0 -69
3 -80 29 -114 65 -86 199 -89 269 -7 69 82 56 221 -26 282 -42 31 -137 37
-186 13z m143 -87 c28 -38 28 -126 0 -164 -35 -47 -103 -43 -129 7 -28 55 -12
167 27 184 33 13 81 0 102 -27z"/>
<path d="M3634 2291 c-73 -33 -110 -103 -102 -198 6 -65 29 -100 89 -131 38
-20 55 -23 127 -19 45 2 87 8 93 14 6 6 9 48 7 99 l-3 89 -65 0 -65 0 -3 -32
c-3 -31 -1 -33 27 -33 29 0 31 -3 31 -35 0 -35 0 -35 -46 -35 -37 0 -51 5 -75
29 -24 25 -29 38 -29 79 0 90 70 140 162 115 37 -10 38 -10 47 21 6 24 5 34
-7 44 -24 19 -140 15 -188 -7z"/>
<path d="M3920 2125 l0 -185 40 0 40 0 0 185 0 185 -40 0 -40 0 0 -185z"/>
<path d="M4180 2125 l0 -185 40 0 40 0 0 71 0 70 28 -3 c24 -3 29 -11 48 -68
l21 -65 41 -3 c27 -2 42 1 42 8 0 26 -33 126 -47 141 -12 15 -11 20 11 44 19
20 26 39 26 67 0 81 -42 108 -170 108 l-80 0 0 -185z"/>
<path d="M4490 2180 c0 -191 23 -231 133 -238 48 -2 69 1 93 16 52 33 64 73
64 221 l0 131 -40 0 -40 0 0 -114 c0 -153 -13 -186 -73 -186 -43 0 -57 45 -57
185 l0 115 -40 0 -40 0 0 -130z"/>
<path d="M4840 2125 l0 -185 40 0 40 0 0 128 0 127 68 -127 67 -128 47 0 48 0
0 185 0 185 -40 0 -40 0 0 -117 0 -118 -62 118 -62 117 -53 0 -53 0 0 -185z"/>
</g>
</svg>
